<?xml version="1.0" standalone="no"?>
<!DOCTYPE svg PUBLIC "-//W3C//DTD SVG 20010904//EN"
 "http://www.w3.org/TR/2001/REC-SVG-20010904/DTD/svg10.dtd">
<svg version="1.0" xmlns="http://www.w3.org/2000/svg"
 width="600.000000pt" height="349.000000pt" viewBox="0 0 600.000000 349.000000"
 preserveAspectRatio="xMidYMid meet">
<metadata>
Created by potrace 1.11, written by Peter Selinger 2001-2013
</metadata>
<g transform="translate(0.000000,349.000000) scale(0.100000,-0.100000)"
fill="#000000" stroke="none">
<path d="M0 1745 l0 -1745 3000 0 3000 0 0 1745 0 1745 -3000 0 -3000 0 0
-1745z m1420 746 c0 -18 -177 -773 -211 -903 -18 -66 -24 -76 -38 -69 -9 5
-25 7 -36 5 -11 -1 -60 -4 -110 -5 l-90 -2 -27 38 c-16 21 -28 41 -28 44 0 4
20 29 45 58 25 28 45 57 45 65 0 7 -17 38 -39 68 l-39 54 50 58 c32 36 48 63
45 73 -11 28 -35 15 -97 -55 l-63 -70 39 -58 c22 -31 41 -61 43 -66 2 -4 -20
-32 -50 -62 -58 -59 -58 -56 -7 -134 12 -19 16 -30 8 -24 -9 7 -70 12 -149 13
-74 1 -150 4 -168 7 -21 2 -32 0 -28 -6 3 -5 1 -10 -5 -10 -6 0 -9 8 -6 18 2
9 7 33 11 52 4 19 38 175 77 345 47 208 79 326 96 358 38 72 125 162 184 191
52 26 53 26 300 26 146 0 248 -4 248 -9z m2203 -302 c40 -11 77 -56 77 -93 0
-21 -66 -236 -78 -251 -4 -6 -76 -10 -180 -10 -108 0 -172 4 -172 10 0 28 71
320 81 331 7 8 41 14 92 17 45 1 96 4 112 5 17 1 47 -3 68 -9z m-1041 -1141
l37 -61 7 61 c6 53 9 62 27 62 17 0 19 -5 13 -37 -3 -21 -6 -62 -6 -90 0 -51
-1 -53 -27 -53 -23 0 -34 10 -63 59 -39 66 -50 63 -50 -11 0 -42 -3 -48 -21
-48 -20 0 -21 4 -15 53 3 28 6 69 6 90 0 34 2 37 28 37 22 0 33 -11 64 -62z
m436 50 c-3 -7 -25 -14 -51 -16 -39 -3 -47 -6 -47 -23 0 -16 7 -19 40 -19 29
0 40 -4 40 -15 0 -11 -11 -15 -40 -15 -36 0 -40 -2 -40 -25 0 -23 4 -25 45
-25 33 0 45 -4 45 -15 0 -12 -15 -15 -71 -15 l-71 0 6 31 c3 17 6 58 6 90 l0
59 71 0 c52 0 70 -3 67 -12z m-413 -298 c37 -41 -17 -170 -71 -170 -26 0 -26
1 -10 23 9 12 26 41 38 65 20 38 21 44 7 57 -19 19 -49 10 -49 -15 0 -10 10
-22 21 -25 19 -6 20 -8 5 -23 -12 -13 -20 -13 -41 -4 -34 16 -36 73 -3 96 31
22 81 20 103 -4z m336 10 c21 -12 25 -50 7 -68 -9 -9 -9 -15 0 -24 19 -19 14
-55 -10 -72 -29 -21 -77 -20 -100 1 -22 20 -23 59 -2 71 11 6 13 11 5 16 -16
10 -13 47 6 68 18 20 64 24 94 8z"/>
</g>
</svg>
