<?xml version="1.0" standalone="no"?>
<!DOCTYPE svg PUBLIC "-//W3C//DTD SVG 20010904//EN"
 "http://www.w3.org/TR/2001/REC-SVG-20010904/DTD/svg10.dtd">
<svg version="1.0" xmlns="http://www.w3.org/2000/svg"
 width="600.000000pt" height="349.000000pt" viewBox="0 0 600.000000 349.000000"
 preserveAspectRatio="xMidYMid meet">
<metadata>
Created by potrace 1.11, written by Peter Selinger 2001-2013
</metadata>
<g transform="translate(0.000000,349.000000) scale(0.100000,-0.100000)"
fill="#000000" stroke="none">
<path d="M0 1745 l0 -1745 3000 0 3000 0 0 1745 0 1745 -3000 0 -3000 0 0
-1745z m3719 1038 c454 -251 972 -537 1151 -636 179 -99 369 -204 424 -234
l98 -55 -63 -37 -64 -36 205 -5 c202 -5 206 -5 252 -33 71 -41 103 -102 103
-192 -1 -56 -6 -82 -28 -127 -49 -101 -164 -186 -279 -208 -29 -6 -314 -10
-665 -10 l-615 0 -784 -440 -784 -440 -462 259 c-255 142 -613 342 -796 445
l-332 186 -241 0 c-261 0 -286 4 -342 58 -61 58 -81 136 -64 248 l8 51 -131
73 c-80 44 -128 76 -123 81 5 5 84 51 174 102 l164 92 45 180 c41 164 49 187
93 252 55 82 118 142 185 175 45 22 59 23 320 26 l272 3 15 35 c22 53 111 140
174 171 55 27 61 28 257 31 l202 3 388 219 c214 121 395 219 403 220 8 0 386
-205 840 -457z"/>
<path d="M872 2474 c-59 -29 -146 -119 -184 -191 -17 -31 -46 -137 -83 -298
-103 -450 -114 -511 -85 -465 8 12 10 12 10 1 0 -10 3 -11 13 -2 8 6 16 9 18
6 3 -2 68 -5 144 -6 89 0 145 -5 155 -12 8 -7 4 4 -8 23 -51 78 -51 75 7 134
30 30 52 58 50 62 -2 5 -21 35 -43 66 l-39 58 63 70 c62 70 86 83 97 55 3 -10
-13 -37 -45 -73 l-50 -58 39 -54 c22 -30 39 -61 39 -68 0 -8 -20 -37 -45 -65
-25 -29 -45 -54 -45 -57 0 -3 16 -28 36 -55 20 -28 34 -43 32 -35 -5 13 12 15
113 15 72 0 119 -4 120 -10 1 -24 24 53 65 223 63 261 174 741 174 752 0 6
-94 10 -248 10 -247 0 -248 0 -300 -26z"/>
<path d="M3443 2193 c-51 -3 -85 -9 -92 -17 -9 -11 -81 -307 -81 -333 0 -12
344 -10 353 2 11 15 77 229 77 251 0 10 -9 33 -20 51 -20 34 -71 55 -125 51
-16 -1 -67 -4 -112 -5z"/>
<path d="M2490 1073 c0 -21 -3 -62 -6 -90 -6 -49 -5 -53 15 -53 18 0 21 6 21
48 0 74 11 77 50 11 29 -49 40 -59 63 -59 26 0 27 2 27 53 0 28 3 69 6 90 6
32 4 37 -13 37 -18 0 -21 -9 -27 -62 l-7 -61 -37 61 c-31 51 -42 62 -64 62
-26 0 -28 -3 -28 -37z"/>
<path d="M2880 1051 c0 -32 -3 -73 -6 -90 l-6 -31 71 0 c56 0 71 3 71 15 0 11
-12 15 -45 15 -41 0 -45 2 -45 25 0 23 4 25 40 25 29 0 40 4 40 15 0 11 -11
15 -40 15 -33 0 -40 3 -40 19 0 17 8 20 47 23 26 2 48 9 51 16 3 9 -15 12 -67
12 l-71 0 0 -59z"/>
<path d="M2502 804 c-18 -12 -22 -24 -20 -52 2 -30 8 -38 31 -46 22 -8 30 -7
37 4 7 11 4 18 -10 24 -11 5 -20 17 -20 26 0 25 30 34 49 15 14 -13 13 -19 -7
-57 -12 -24 -29 -53 -38 -65 -16 -22 -16 -23 10 -23 54 0 108 129 71 170 -22
24 -72 26 -103 4z"/>
<path d="M2847 802 c-19 -21 -22 -58 -6 -68 8 -5 6 -10 -5 -16 -20 -11 -21
-52 0 -72 20 -20 73 -20 102 0 24 17 29 53 10 72 -9 9 -9 15 0 24 18 18 14 56
-7 68 -30 16 -76 12 -94 -8z"/>
</g>
</svg>
