<?xml version="1.0" standalone="no"?>
<!DOCTYPE svg PUBLIC "-//W3C//DTD SVG 20010904//EN"
 "http://www.w3.org/TR/2001/REC-SVG-20010904/DTD/svg10.dtd">
<svg version="1.0" xmlns="http://www.w3.org/2000/svg"
 width="600.000000pt" height="349.000000pt" viewBox="0 0 600.000000 349.000000"
 preserveAspectRatio="xMidYMid meet">
<metadata>
Created by potrace 1.11, written by Peter Selinger 2001-2013
</metadata>
<g transform="translate(0.000000,349.000000) scale(0.100000,-0.100000)"
fill="#000000" stroke="none">
<path d="M2470 3024 l-395 -223 -191 -1 -191 0 -71 -35 c-77 -39 -131 -91
-164 -160 l-22 -45 -271 0 c-271 0 -271 0 -322 -26 -61 -30 -155 -127 -205
-210 -26 -43 -44 -95 -67 -192 -17 -74 -31 -146 -31 -161 0 -30 -31 -50 -262
-177 -59 -33 -106 -63 -105 -68 1 -4 61 -41 132 -81 l130 -72 -3 -104 c-2 -93
0 -108 20 -144 13 -21 43 -53 66 -70 l44 -30 256 -5 257 -5 115 -64 c63 -35
180 -101 260 -146 80 -45 269 -151 420 -235 151 -84 390 -217 531 -296 141
-79 261 -144 267 -144 7 0 89 43 184 96 915 511 1339 750 1370 770 l38 24 647
0 648 0 62 29 c236 112 289 410 91 512 -33 17 -61 19 -240 20 l-203 0 68 31
c37 17 67 36 67 43 0 7 -17 21 -37 30 -33 16 -1333 732 -1543 850 -41 23 -100
56 -130 72 -310 171 -660 364 -722 399 -43 24 -83 44 -90 43 -7 -1 -191 -102
-408 -225z m540 148 c69 -38 298 -165 510 -282 639 -353 1202 -665 1250 -692
25 -13 175 -96 333 -184 l288 -158 -76 -38 -75 -38 -784 2 -783 3 44 145 c47
156 49 189 12 248 -37 62 -68 72 -221 72 -76 0 -138 1 -138 3 0 3 22 106 51
236 27 127 -10 230 -101 281 l-45 25 -585 5 -585 5 205 117 c306 174 564 318
570 318 3 0 61 -31 130 -68z m-102 -459 c-3 -10 -26 -109 -53 -220 l-49 -203
-468 0 -467 0 -10 -37 c-52 -196 -120 -494 -115 -507 6 -15 36 -16 273 -14
l266 3 0 25 0 25 -238 3 c-221 2 -238 4 -233 20 3 9 24 91 46 182 23 91 46
182 51 203 l10 37 434 0 435 0 -6 -32 c-9 -50 -62 -264 -86 -345 l-22 -73
-112 0 c-90 0 -114 -3 -125 -16 -9 -11 -10 -20 -2 -32 8 -14 30 -18 117 -20
64 -2 106 -7 106 -13 0 -6 -14 -67 -30 -137 -17 -70 -36 -147 -42 -172 -5 -25
-14 -60 -20 -77 l-10 -33 -591 0 c-557 0 -594 1 -627 19 -19 10 -46 33 -58 52
-21 30 -23 42 -19 104 3 39 10 88 15 110 6 22 15 60 20 85 47 212 146 640 162
700 11 41 24 99 30 128 5 29 19 69 29 90 27 51 97 117 151 141 44 20 64 21
644 21 565 0 598 -1 594 -17z m404 -20 c68 -72 70 -90 33 -256 -13 -62 -29
-132 -34 -157 -26 -116 -53 -236 -81 -355 -36 -155 -36 -162 -8 -192 l21 -23
1207 0 1207 0 34 -23 c100 -66 89 -208 -23 -312 -36 -34 -78 -61 -113 -74 -56
-21 -61 -21 -1496 -21 -1367 0 -1440 1 -1435 18 3 9 21 82 41 162 20 80 41
168 49 195 l13 50 111 5 c118 5 146 16 126 48 -9 14 -29 18 -113 20 -68 2
-101 6 -101 14 0 7 18 80 39 162 21 83 62 248 91 366 59 247 77 320 91 373
l10 37 147 0 148 0 36 -37z m-1892 -214 c0 -19 -97 -447 -175 -774 -18 -77
-39 -167 -45 -200 -29 -149 -42 -200 -52 -212 -7 -9 -44 -13 -123 -13 l-113 0
-33 41 -32 40 52 53 c28 28 51 55 51 60 0 5 -18 35 -40 68 l-41 59 52 59 52
60 -29 41 c-66 94 -65 82 -5 143 36 36 52 60 48 70 -4 9 -12 16 -19 16 -11 0
-138 -131 -138 -143 0 -3 20 -31 45 -63 l45 -58 -42 -45 c-24 -25 -46 -47 -50
-49 -18 -8 -6 -45 32 -99 l40 -57 -50 -51 c-27 -28 -50 -55 -50 -60 0 -6 11
-27 25 -48 l26 -37 -121 0 c-134 0 -173 10 -208 55 -45 57 -48 95 -19 223 38
162 70 298 102 427 15 61 34 142 43 180 30 124 130 265 223 312 42 22 55 23
297 23 248 0 252 0 252 -21z m2251 -317 c19 -22 29 -43 29 -65 0 -35 -58 -244
-81 -292 l-14 -30 -178 -3 c-164 -2 -177 -1 -177 15 1 37 88 384 101 399 11
13 35 15 152 12 l139 -3 29 -33z m-3147 -269 c-3 -16 -9 -39 -14 -53 -4 -14
-12 -47 -18 -75 -6 -27 -19 -83 -28 -122 l-17 -73 -26 19 c-14 10 -74 44 -133
76 -59 33 -105 61 -102 64 8 8 329 190 337 190 4 1 5 -11 1 -26z m786 -649
c34 -18 85 -19 1480 -24 1342 -5 1443 -6 1420 -21 -23 -15 -575 -325 -1248
-701 -156 -87 -288 -158 -294 -158 -6 0 -126 65 -267 144 -141 79 -447 250
-681 381 -620 347 -620 346 -626 356 -3 5 8 9 25 9 46 0 60 9 82 52 l20 39 27
-29 c15 -16 43 -38 62 -48z"/>
</g>
</svg>
